<mxfile host="65bd71144e">
    <diagram id="EREMhzUzBn0KBrjSUYRr" name="Page-1">
        <mxGraphModel dx="857" dy="1174" grid="1" gridSize="10" guides="1" tooltips="1" connect="1" arrows="1" fold="1" page="1" pageScale="1" pageWidth="850" pageHeight="1100" math="0" shadow="0">
            <root>
                <mxCell id="0"/>
                <mxCell id="1" parent="0"/>
                <mxCell id="2" value="" style="rounded=1;whiteSpace=wrap;html=1;fontSize=19;dashed=1;fontColor=#ffffff;fillColor=none;strokeWidth=6;strokeColor=#005700;" vertex="1" parent="1">
                    <mxGeometry x="190" y="270" width="420" height="220" as="geometry"/>
                </mxCell>
                <mxCell id="3" value="strip 6" style="shape=cylinder3;whiteSpace=wrap;html=1;boundedLbl=1;backgroundOutline=1;size=15;fontSize=19;strokeColor=#000000;" vertex="1" parent="1">
                    <mxGeometry x="30" y="330" width="100" height="70" as="geometry"/>
                </mxCell>
                <mxCell id="4" value="strip 5" style="shape=cylinder3;whiteSpace=wrap;html=1;boundedLbl=1;backgroundOutline=1;size=15;fontSize=19;strokeColor=#000000;" vertex="1" parent="1">
                    <mxGeometry x="30" y="290" width="100" height="70" as="geometry"/>
                </mxCell>
                <mxCell id="5" value="strip 4" style="shape=cylinder3;whiteSpace=wrap;html=1;boundedLbl=1;backgroundOutline=1;size=15;fontSize=19;strokeColor=#000000;" vertex="1" parent="1">
                    <mxGeometry x="30" y="250" width="100" height="70" as="geometry"/>
                </mxCell>
                <mxCell id="6" value="strip 3" style="shape=cylinder3;whiteSpace=wrap;html=1;boundedLbl=1;backgroundOutline=1;size=15;fontSize=19;strokeColor=#000000;" vertex="1" parent="1">
                    <mxGeometry x="30" y="210" width="100" height="70" as="geometry"/>
                </mxCell>
                <mxCell id="7" value="strip 2" style="shape=cylinder3;whiteSpace=wrap;html=1;boundedLbl=1;backgroundOutline=1;size=15;fontSize=19;strokeColor=#000000;" vertex="1" parent="1">
                    <mxGeometry x="30" y="170" width="100" height="70" as="geometry"/>
                </mxCell>
                <mxCell id="8" value="strip 1" style="shape=cylinder3;whiteSpace=wrap;html=1;boundedLbl=1;backgroundOutline=1;size=15;fontSize=19;strokeColor=#000000;" vertex="1" parent="1">
                    <mxGeometry x="30" y="130" width="100" height="70" as="geometry"/>
                </mxCell>
                <mxCell id="9" value="strip 0" style="shape=cylinder3;whiteSpace=wrap;html=1;boundedLbl=1;backgroundOutline=1;size=15;fontSize=19;fillColor=#a20025;fontColor=#ffffff;strokeColor=#000000;" vertex="1" parent="1">
                    <mxGeometry x="30" y="90" width="100" height="70" as="geometry"/>
                </mxCell>
                <mxCell id="10" value="..." style="text;html=1;strokeColor=none;fillColor=none;align=center;verticalAlign=bottom;whiteSpace=wrap;rounded=0;fontSize=40;fontStyle=1" vertex="1" parent="1">
                    <mxGeometry x="35" y="400" width="90" height="30" as="geometry"/>
                </mxCell>
                <mxCell id="11" value="" style="endArrow=none;dashed=1;html=1;strokeWidth=6;fillColor=#6a00ff;strokeColor=#3700CC;" edge="1" parent="1">
                    <mxGeometry width="50" height="50" relative="1" as="geometry">
                        <mxPoint x="160" y="400" as="sourcePoint"/>
                        <mxPoint x="160" y="20" as="targetPoint"/>
                    </mxGeometry>
                </mxCell>
                <mxCell id="12" value="Disk" style="text;html=1;strokeColor=none;fillColor=none;align=center;verticalAlign=middle;whiteSpace=wrap;rounded=0;fontSize=19;" vertex="1" parent="1">
                    <mxGeometry x="35" y="40" width="90" height="50" as="geometry"/>
                </mxCell>
                <mxCell id="13" value="Physical" style="text;html=1;strokeColor=none;fillColor=none;align=center;verticalAlign=middle;whiteSpace=wrap;rounded=0;fontSize=25;" vertex="1" parent="1">
                    <mxGeometry x="425" y="10" width="90" height="50" as="geometry"/>
                </mxCell>
                <mxCell id="14" value="Logical" style="text;html=1;strokeColor=none;fillColor=none;align=center;verticalAlign=middle;whiteSpace=wrap;rounded=0;fontSize=25;" vertex="1" parent="1">
                    <mxGeometry x="35" y="10" width="90" height="50" as="geometry"/>
                </mxCell>
                <mxCell id="15" value="strip 2 b0" style="shape=cylinder3;whiteSpace=wrap;html=1;boundedLbl=1;backgroundOutline=1;size=15;fontSize=19;strokeColor=#000000;" vertex="1" parent="1">
                    <mxGeometry x="210" y="170" width="100" height="70" as="geometry"/>
                </mxCell>
                <mxCell id="16" value="strip 1 b0" style="shape=cylinder3;whiteSpace=wrap;html=1;boundedLbl=1;backgroundOutline=1;size=15;fontSize=19;strokeColor=#000000;" vertex="1" parent="1">
                    <mxGeometry x="210" y="130" width="100" height="70" as="geometry"/>
                </mxCell>
                <mxCell id="17" value="strip 0 b0" style="shape=cylinder3;whiteSpace=wrap;html=1;boundedLbl=1;backgroundOutline=1;size=15;fontSize=19;fillColor=#a20025;fontColor=#ffffff;strokeColor=#000000;" vertex="1" parent="1">
                    <mxGeometry x="210" y="90" width="100" height="70" as="geometry"/>
                </mxCell>
                <mxCell id="18" value="strip 2 b2" style="shape=cylinder3;whiteSpace=wrap;html=1;boundedLbl=1;backgroundOutline=1;size=15;fontSize=19;strokeColor=#000000;" vertex="1" parent="1">
                    <mxGeometry x="490" y="170" width="100" height="70" as="geometry"/>
                </mxCell>
                <mxCell id="19" value="strip 1 b2" style="shape=cylinder3;whiteSpace=wrap;html=1;boundedLbl=1;backgroundOutline=1;size=15;fontSize=19;strokeColor=#000000;" vertex="1" parent="1">
                    <mxGeometry x="490" y="130" width="100" height="70" as="geometry"/>
                </mxCell>
                <mxCell id="20" value="strip 0 b2" style="shape=cylinder3;whiteSpace=wrap;html=1;boundedLbl=1;backgroundOutline=1;size=15;fontSize=19;fillColor=#a20025;fontColor=#ffffff;strokeColor=#000000;" vertex="1" parent="1">
                    <mxGeometry x="490" y="90" width="100" height="70" as="geometry"/>
                </mxCell>
                <mxCell id="21" value="strip 2 b1" style="shape=cylinder3;whiteSpace=wrap;html=1;boundedLbl=1;backgroundOutline=1;size=15;fontSize=19;strokeColor=#000000;" vertex="1" parent="1">
                    <mxGeometry x="350" y="170" width="100" height="70" as="geometry"/>
                </mxCell>
                <mxCell id="22" value="strip 1 b1" style="shape=cylinder3;whiteSpace=wrap;html=1;boundedLbl=1;backgroundOutline=1;size=15;fontSize=19;strokeColor=#000000;" vertex="1" parent="1">
                    <mxGeometry x="350" y="130" width="100" height="70" as="geometry"/>
                </mxCell>
                <mxCell id="23" value="strip 0 b1" style="shape=cylinder3;whiteSpace=wrap;html=1;boundedLbl=1;backgroundOutline=1;size=15;fontSize=19;fillColor=#a20025;fontColor=#ffffff;strokeColor=#000000;" vertex="1" parent="1">
                    <mxGeometry x="350" y="90" width="100" height="70" as="geometry"/>
                </mxCell>
                <mxCell id="24" value="strip 2 b3" style="shape=cylinder3;whiteSpace=wrap;html=1;boundedLbl=1;backgroundOutline=1;size=15;fontSize=19;strokeColor=#000000;" vertex="1" parent="1">
                    <mxGeometry x="640" y="170" width="100" height="70" as="geometry"/>
                </mxCell>
                <mxCell id="25" value="strip 1 b3" style="shape=cylinder3;whiteSpace=wrap;html=1;boundedLbl=1;backgroundOutline=1;size=15;fontSize=19;strokeColor=#000000;" vertex="1" parent="1">
                    <mxGeometry x="640" y="130" width="100" height="70" as="geometry"/>
                </mxCell>
                <mxCell id="26" value="strip 0 b3" style="shape=cylinder3;whiteSpace=wrap;html=1;boundedLbl=1;backgroundOutline=1;size=15;fontSize=19;fillColor=#a20025;fontColor=#ffffff;strokeColor=#000000;" vertex="1" parent="1">
                    <mxGeometry x="640" y="90" width="100" height="70" as="geometry"/>
                </mxCell>
                <mxCell id="27" value="Disk 2" style="text;html=1;strokeColor=none;fillColor=none;align=center;verticalAlign=middle;whiteSpace=wrap;rounded=0;fontSize=19;" vertex="1" parent="1">
                    <mxGeometry x="495" y="40" width="90" height="50" as="geometry"/>
                </mxCell>
                <mxCell id="28" value="Disk 3" style="text;html=1;strokeColor=none;fillColor=none;align=center;verticalAlign=middle;whiteSpace=wrap;rounded=0;fontSize=19;" vertex="1" parent="1">
                    <mxGeometry x="645" y="40" width="90" height="50" as="geometry"/>
                </mxCell>
                <mxCell id="29" value="..." style="text;html=1;strokeColor=none;fillColor=none;align=center;verticalAlign=bottom;whiteSpace=wrap;rounded=0;fontSize=40;fontStyle=1" vertex="1" parent="1">
                    <mxGeometry x="215" y="240" width="90" height="30" as="geometry"/>
                </mxCell>
                <mxCell id="30" value="..." style="text;html=1;strokeColor=none;fillColor=none;align=center;verticalAlign=bottom;whiteSpace=wrap;rounded=0;fontSize=40;fontStyle=1" vertex="1" parent="1">
                    <mxGeometry x="355" y="240" width="90" height="30" as="geometry"/>
                </mxCell>
                <mxCell id="31" value="..." style="text;html=1;strokeColor=none;fillColor=none;align=center;verticalAlign=bottom;whiteSpace=wrap;rounded=0;fontSize=40;fontStyle=1" vertex="1" parent="1">
                    <mxGeometry x="495" y="240" width="90" height="30" as="geometry"/>
                </mxCell>
                <mxCell id="32" value="..." style="text;html=1;strokeColor=none;fillColor=none;align=center;verticalAlign=bottom;whiteSpace=wrap;rounded=0;fontSize=40;fontStyle=1" vertex="1" parent="1">
                    <mxGeometry x="645" y="240" width="90" height="30" as="geometry"/>
                </mxCell>
                <mxCell id="33" value="Disk 0" style="text;html=1;strokeColor=none;fillColor=none;align=center;verticalAlign=middle;whiteSpace=wrap;rounded=0;fontSize=19;" vertex="1" parent="1">
                    <mxGeometry x="215" y="40" width="90" height="50" as="geometry"/>
                </mxCell>
                <mxCell id="34" value="Disk 1" style="text;html=1;strokeColor=none;fillColor=none;align=center;verticalAlign=middle;whiteSpace=wrap;rounded=0;fontSize=19;" vertex="1" parent="1">
                    <mxGeometry x="355" y="40" width="90" height="50" as="geometry"/>
                </mxCell>
                <mxCell id="35" value="&lt;span&gt;strip 2 Pb0&lt;/span&gt;" style="shape=cylinder3;whiteSpace=wrap;html=1;boundedLbl=1;backgroundOutline=1;size=15;fontSize=19;strokeColor=#000000;fontColor=#000000;" vertex="1" parent="1">
                    <mxGeometry x="210" y="390" width="100" height="70" as="geometry"/>
                </mxCell>
                <mxCell id="36" value="&lt;span&gt;strip 1 Pb0&lt;/span&gt;" style="shape=cylinder3;whiteSpace=wrap;html=1;boundedLbl=1;backgroundOutline=1;size=15;fontSize=19;strokeColor=#000000;fontColor=#000000;" vertex="1" parent="1">
                    <mxGeometry x="210" y="350" width="100" height="70" as="geometry"/>
                </mxCell>
                <mxCell id="37" value="strip 0 Pb0" style="shape=cylinder3;whiteSpace=wrap;html=1;boundedLbl=1;backgroundOutline=1;size=15;fontSize=19;fillColor=#1ba1e2;fontColor=#ffffff;strokeColor=#000000;" vertex="1" parent="1">
                    <mxGeometry x="210" y="310" width="100" height="70" as="geometry"/>
                </mxCell>
                <mxCell id="38" value="&lt;span style=&quot;color: rgb(255 , 255 , 255)&quot;&gt;strip 2 P2&lt;/span&gt;" style="shape=cylinder3;whiteSpace=wrap;html=1;boundedLbl=1;backgroundOutline=1;size=15;fontSize=19;strokeColor=#000000;" vertex="1" parent="1">
                    <mxGeometry x="490" y="390" width="100" height="70" as="geometry"/>
                </mxCell>
                <mxCell id="39" value="&lt;span style=&quot;color: rgb(255 , 255 , 255)&quot;&gt;strip 1 P2&lt;/span&gt;" style="shape=cylinder3;whiteSpace=wrap;html=1;boundedLbl=1;backgroundOutline=1;size=15;fontSize=19;strokeColor=#000000;" vertex="1" parent="1">
                    <mxGeometry x="490" y="350" width="100" height="70" as="geometry"/>
                </mxCell>
                <mxCell id="41" value="&lt;span&gt;strip 2 Pb1&lt;/span&gt;" style="shape=cylinder3;whiteSpace=wrap;html=1;boundedLbl=1;backgroundOutline=1;size=15;fontSize=19;strokeColor=#000000;fontColor=#000000;" vertex="1" parent="1">
                    <mxGeometry x="350" y="390" width="100" height="70" as="geometry"/>
                </mxCell>
                <mxCell id="42" value="&lt;span style=&quot;color: rgb(255 , 255 , 255)&quot;&gt;strip 1 P1&lt;/span&gt;" style="shape=cylinder3;whiteSpace=wrap;html=1;boundedLbl=1;backgroundOutline=1;size=15;fontSize=19;strokeColor=#000000;" vertex="1" parent="1">
                    <mxGeometry x="350" y="350" width="100" height="70" as="geometry"/>
                </mxCell>
                <mxCell id="47" value="Disk 6" style="text;html=1;strokeColor=none;fillColor=none;align=center;verticalAlign=middle;whiteSpace=wrap;rounded=0;fontSize=19;" vertex="1" parent="1">
                    <mxGeometry x="495" y="270" width="90" height="50" as="geometry"/>
                </mxCell>
                <mxCell id="49" value="Error Correcting Bits" style="text;html=1;strokeColor=none;fillColor=none;align=center;verticalAlign=middle;whiteSpace=wrap;rounded=0;dashed=1;fontSize=25;fontColor=#005700;" vertex="1" parent="1">
                    <mxGeometry x="620" y="350" width="140" height="20" as="geometry"/>
                </mxCell>
                <mxCell id="50" value="..." style="text;html=1;strokeColor=none;fillColor=none;align=center;verticalAlign=bottom;whiteSpace=wrap;rounded=0;fontSize=40;fontStyle=1" vertex="1" parent="1">
                    <mxGeometry x="215" y="460" width="90" height="30" as="geometry"/>
                </mxCell>
                <mxCell id="51" value="..." style="text;html=1;strokeColor=none;fillColor=none;align=center;verticalAlign=bottom;whiteSpace=wrap;rounded=0;fontSize=40;fontStyle=1" vertex="1" parent="1">
                    <mxGeometry x="355" y="460" width="90" height="30" as="geometry"/>
                </mxCell>
                <mxCell id="52" value="..." style="text;html=1;strokeColor=none;fillColor=none;align=center;verticalAlign=bottom;whiteSpace=wrap;rounded=0;fontSize=40;fontStyle=1" vertex="1" parent="1">
                    <mxGeometry x="495" y="460" width="90" height="30" as="geometry"/>
                </mxCell>
                <mxCell id="54" value="Disk 4" style="text;html=1;strokeColor=none;fillColor=none;align=center;verticalAlign=middle;whiteSpace=wrap;rounded=0;fontSize=19;" vertex="1" parent="1">
                    <mxGeometry x="215" y="270" width="90" height="50" as="geometry"/>
                </mxCell>
                <mxCell id="55" value="Disk 5" style="text;html=1;strokeColor=none;fillColor=none;align=center;verticalAlign=middle;whiteSpace=wrap;rounded=0;fontSize=19;" vertex="1" parent="1">
                    <mxGeometry x="355" y="270" width="90" height="50" as="geometry"/>
                </mxCell>
                <mxCell id="56" value="&lt;span&gt;strip 2 Pb2&lt;/span&gt;" style="shape=cylinder3;whiteSpace=wrap;html=1;boundedLbl=1;backgroundOutline=1;size=15;fontSize=19;strokeColor=#000000;fontColor=#000000;" vertex="1" parent="1">
                    <mxGeometry x="490" y="390" width="100" height="70" as="geometry"/>
                </mxCell>
                <mxCell id="57" value="&lt;span&gt;strip 1 Pb2&lt;/span&gt;" style="shape=cylinder3;whiteSpace=wrap;html=1;boundedLbl=1;backgroundOutline=1;size=15;fontSize=19;strokeColor=#000000;fontColor=#000000;" vertex="1" parent="1">
                    <mxGeometry x="490" y="350" width="100" height="70" as="geometry"/>
                </mxCell>
                <mxCell id="58" value="&lt;span&gt;strip 1 Pb1&lt;/span&gt;" style="shape=cylinder3;whiteSpace=wrap;html=1;boundedLbl=1;backgroundOutline=1;size=15;fontSize=19;strokeColor=#000000;fontColor=#000000;" vertex="1" parent="1">
                    <mxGeometry x="350" y="350" width="100" height="70" as="geometry"/>
                </mxCell>
                <mxCell id="43" value="strip 0 Pb1" style="shape=cylinder3;whiteSpace=wrap;html=1;boundedLbl=1;backgroundOutline=1;size=15;fontSize=19;fillColor=#1ba1e2;fontColor=#ffffff;strokeColor=#000000;" vertex="1" parent="1">
                    <mxGeometry x="350" y="310" width="100" height="70" as="geometry"/>
                </mxCell>
                <mxCell id="40" value="strip 0 Pb3" style="shape=cylinder3;whiteSpace=wrap;html=1;boundedLbl=1;backgroundOutline=1;size=15;fontSize=19;fillColor=#1ba1e2;fontColor=#ffffff;strokeColor=#000000;" vertex="1" parent="1">
                    <mxGeometry x="490" y="310" width="100" height="70" as="geometry"/>
                </mxCell>
            </root>
        </mxGraphModel>
    </diagram>
</mxfile>